<svg width="1655" height="267" viewBox="0 0 1655 267" fill="none" xmlns="http://www.w3.org/2000/svg">
<path d="M113.25 40.375C112.083 42.2917 110.875 43.7083 109.625 44.625C108.458 45.4583 106.917 45.875 105 45.875C103.167 45.875 101.167 45.25 99 44C96.9167 42.6667 94.4583 41.25 91.625 39.75C88.7917 38.25 85.5417 36.875 81.875 35.625C78.2083 34.2917 73.9167 33.625 69 33.625C60.3333 33.625 53.8333 35.5833 49.5 39.5C45.1667 43.3333 43 48.375 43 54.625C43 58.625 44.1667 61.9583 46.5 64.625C48.9167 67.2083 52.0417 69.4583 55.875 71.375C59.7917 73.2917 64.2083 75 69.125 76.5C74.0417 78 79.0833 79.6667 84.25 81.5C89.4167 83.25 94.4583 85.3333 99.375 87.75C104.292 90.1667 108.667 93.2083 112.5 96.875C116.417 100.542 119.542 105.042 121.875 110.375C124.292 115.625 125.5 122.042 125.5 129.625C125.5 137.875 124.042 145.625 121.125 152.875C118.292 160.042 114.167 166.333 108.75 171.75C103.333 177.083 96.625 181.292 88.625 184.375C80.7083 187.458 71.7083 189 61.625 189C55.875 189 50.125 188.417 44.375 187.25C38.7083 186.083 33.2083 184.458 27.875 182.375C22.625 180.292 17.6667 177.792 13 174.875C8.33333 171.958 4.25 168.708 0.75 165.125L11.75 147.375C12.6667 146.042 13.875 144.958 15.375 144.125C16.875 143.208 18.4583 142.75 20.125 142.75C22.375 142.75 24.75 143.583 27.25 145.25C29.75 146.917 32.625 148.75 35.875 150.75C39.125 152.75 42.875 154.583 47.125 156.25C51.4583 157.917 56.625 158.75 62.625 158.75C71.375 158.75 78.125 156.75 82.875 152.75C87.7083 148.75 90.125 142.792 90.125 134.875C90.125 130.292 88.9167 126.583 86.5 123.75C84.1667 120.917 81.0833 118.542 77.25 116.625C73.4167 114.708 69.0417 113.083 64.125 111.75C59.2083 110.333 54.1667 108.792 49 107.125C43.8333 105.458 38.7917 103.458 33.875 101.125C28.9583 98.7917 24.5833 95.7083 20.75 91.875C16.9167 88.0417 13.7917 83.2917 11.375 77.625C9.04167 71.9583 7.875 64.9167 7.875 56.5C7.875 49.75 9.20833 43.2083 11.875 36.875C14.5417 30.5417 18.4583 24.9167 23.625 20C28.7917 15.0833 35.125 11.125 42.625 8.12499C50.2083 5.12498 58.875 3.62498 68.625 3.62498C79.5417 3.62498 89.625 5.33332 98.875 8.74999C108.208 12.0833 116.083 16.75 122.5 22.75L113.25 40.375ZM180.736 0.624993V106.375H186.486C188.653 106.375 190.361 106.083 191.611 105.5C192.861 104.833 194.111 103.667 195.361 102L223.861 64C225.278 62.0833 226.861 60.625 228.611 59.625C230.445 58.625 232.736 58.125 235.486 58.125H266.986L229.986 105.125C227.07 109.042 223.695 112.125 219.861 114.375C221.778 115.708 223.445 117.25 224.861 119C226.278 120.75 227.653 122.708 228.986 124.875L268.861 187H237.861C235.195 187 232.903 186.583 230.986 185.75C229.07 184.833 227.486 183.25 226.236 181L197.236 133.625C196.07 131.625 194.861 130.333 193.611 129.75C192.361 129.167 190.486 128.875 187.986 128.875H180.736V187H146.236V0.624993H180.736ZM402.211 58.125L332.711 221.625C331.628 223.958 330.294 225.708 328.711 226.875C327.211 228.042 324.794 228.625 321.461 228.625H295.836L320.211 176.625L268.461 58.125H298.711C301.461 58.125 303.586 58.75 305.086 60C306.586 61.25 307.669 62.7083 308.336 64.375L332.836 126C333.753 128.417 334.544 130.875 335.211 133.375C335.961 135.792 336.669 138.208 337.336 140.625C338.836 135.708 340.544 130.792 342.461 125.875L365.211 64.375C365.878 62.5417 367.086 61.0417 368.836 59.875C370.586 58.7083 372.503 58.125 374.586 58.125H402.211ZM573.695 5.62499V187H535.945V108.875H456.07V187H418.32V5.62499H456.07V82.625H535.945V5.62499H573.695ZM671.375 133.125C662.958 133.542 655.958 134.292 650.375 135.375C644.792 136.375 640.333 137.708 637 139.375C633.75 141.042 631.417 142.958 630 145.125C628.667 147.208 628 149.5 628 152C628 157 629.375 160.542 632.125 162.625C634.958 164.708 638.875 165.75 643.875 165.75C649.625 165.75 654.583 164.75 658.75 162.75C663 160.667 667.208 157.458 671.375 153.125V133.125ZM601.125 76C608.708 69.1667 617.083 64.0833 626.25 60.75C635.417 57.3333 645.333 55.625 656 55.625C663.667 55.625 670.5 56.875 676.5 59.375C682.583 61.875 687.708 65.375 691.875 69.875C696.125 74.2917 699.375 79.5833 701.625 85.75C703.875 91.9167 705 98.6667 705 106V187H689.25C686 187 683.5 186.542 681.75 185.625C680.083 184.708 678.708 182.792 677.625 179.875L674.875 171.625C671.625 174.458 668.458 176.958 665.375 179.125C662.375 181.292 659.25 183.125 656 184.625C652.75 186.042 649.25 187.125 645.5 187.875C641.833 188.625 637.708 189 633.125 189C627.458 189 622.292 188.25 617.625 186.75C612.958 185.25 608.917 183.042 605.5 180.125C602.167 177.125 599.583 173.417 597.75 169C595.917 164.583 595 159.5 595 153.75C595 149 596.208 144.25 598.625 139.5C601.042 134.75 605.167 130.458 611 126.625C616.917 122.708 624.75 119.5 634.5 117C644.333 114.417 656.625 112.958 671.375 112.625V106C671.375 97.9167 669.667 92 666.25 88.25C662.833 84.4167 657.917 82.5 651.5 82.5C646.75 82.5 642.792 83.0833 639.625 84.25C636.458 85.3333 633.667 86.5417 631.25 87.875C628.917 89.125 626.708 90.3333 624.625 91.5C622.542 92.5833 620.125 93.125 617.375 93.125C614.958 93.125 612.917 92.5417 611.25 91.375C609.667 90.125 608.333 88.6667 607.25 87L601.125 76ZM731.93 187V58.125H753.18C757.513 58.125 760.388 60.125 761.805 64.125L763.805 72.5C766.055 70.1667 768.346 68 770.68 66C773.096 64 775.68 62.2917 778.43 60.875C781.18 59.375 784.138 58.2083 787.305 57.375C790.555 56.5417 794.055 56.125 797.805 56.125C805.721 56.125 812.263 58.25 817.43 62.5C822.596 66.6667 826.513 72.25 829.18 79.25C831.263 75.1667 833.805 71.6667 836.805 68.75C839.888 65.75 843.221 63.3333 846.805 61.5C850.471 59.6667 854.305 58.3333 858.305 57.5C862.388 56.5833 866.471 56.125 870.555 56.125C877.805 56.125 884.221 57.2083 889.805 59.375C895.388 61.5417 900.055 64.75 903.805 69C907.638 73.1667 910.555 78.2917 912.555 84.375C914.555 90.4583 915.555 97.375 915.555 105.125V187H881.055V105.125C881.055 90.0417 874.596 82.5 861.68 82.5C858.763 82.5 856.055 83 853.555 84C851.138 84.9167 848.971 86.3333 847.055 88.25C845.221 90.1667 843.763 92.5417 842.68 95.375C841.68 98.2083 841.18 101.458 841.18 105.125V187H806.68V105.125C806.68 96.9583 805.055 91.1667 801.805 87.75C798.638 84.25 793.93 82.5 787.68 82.5C783.68 82.5 779.888 83.4583 776.305 85.375C772.805 87.2083 769.513 89.7917 766.43 93.125V187H731.93ZM942.867 187V58.125H964.117C968.451 58.125 971.326 60.125 972.742 64.125L974.742 72.5C976.992 70.1667 979.284 68 981.617 66C984.034 64 986.617 62.2917 989.367 60.875C992.117 59.375 995.076 58.2083 998.242 57.375C1001.49 56.5417 1004.99 56.125 1008.74 56.125C1016.66 56.125 1023.2 58.25 1028.37 62.5C1033.53 66.6667 1037.45 72.25 1040.12 79.25C1042.2 75.1667 1044.74 71.6667 1047.74 68.75C1050.83 65.75 1054.16 63.3333 1057.74 61.5C1061.41 59.6667 1065.24 58.3333 1069.24 57.5C1073.33 56.5833 1077.41 56.125 1081.49 56.125C1088.74 56.125 1095.16 57.2083 1100.74 59.375C1106.33 61.5417 1110.99 64.75 1114.74 69C1118.58 73.1667 1121.49 78.2917 1123.49 84.375C1125.49 90.4583 1126.49 97.375 1126.49 105.125V187H1091.99V105.125C1091.99 90.0417 1085.53 82.5 1072.62 82.5C1069.7 82.5 1066.99 83 1064.49 84C1062.08 84.9167 1059.91 86.3333 1057.99 88.25C1056.16 90.1667 1054.7 92.5417 1053.62 95.375C1052.62 98.2083 1052.12 101.458 1052.12 105.125V187H1017.62V105.125C1017.62 96.9583 1015.99 91.1667 1012.74 87.75C1009.58 84.25 1004.87 82.5 998.617 82.5C994.617 82.5 990.826 83.4583 987.242 85.375C983.742 87.2083 980.451 89.7917 977.367 93.125V187H942.867ZM1235.55 107.375C1235.55 103.792 1235.05 100.375 1234.05 97.125C1233.14 93.875 1231.64 91 1229.55 88.5C1227.47 86 1224.85 84.0417 1221.68 82.625C1218.51 81.125 1214.72 80.375 1210.3 80.375C1202.05 80.375 1195.6 82.7083 1190.93 87.375C1186.26 92.0417 1183.22 98.7083 1181.8 107.375H1235.55ZM1181.3 127.875C1182.39 139.958 1185.8 148.792 1191.55 154.375C1197.39 159.958 1204.97 162.75 1214.3 162.75C1219.05 162.75 1223.14 162.208 1226.55 161.125C1230.05 159.958 1233.1 158.708 1235.68 157.375C1238.35 155.958 1240.72 154.708 1242.8 153.625C1244.97 152.458 1247.1 151.875 1249.18 151.875C1251.85 151.875 1253.93 152.875 1255.43 154.875L1265.43 167.375C1261.76 171.625 1257.72 175.167 1253.3 178C1248.89 180.75 1244.3 182.958 1239.55 184.625C1234.8 186.208 1230.01 187.292 1225.18 187.875C1220.35 188.542 1215.68 188.875 1211.18 188.875C1202.18 188.875 1193.76 187.417 1185.93 184.5C1178.18 181.5 1171.39 177.125 1165.55 171.375C1159.8 165.542 1155.26 158.333 1151.93 149.75C1148.6 141.167 1146.93 131.208 1146.93 119.875C1146.93 111.125 1148.35 102.875 1151.18 95.125C1154.1 87.375 1158.26 80.625 1163.68 74.875C1169.1 69.125 1175.68 64.5833 1183.43 61.25C1191.18 57.8333 1199.93 56.125 1209.68 56.125C1217.93 56.125 1225.51 57.4583 1232.43 60.125C1239.43 62.7083 1245.43 66.5 1250.43 71.5C1255.51 76.5 1259.43 82.6667 1262.18 90C1265.01 97.25 1266.43 105.542 1266.43 114.875C1266.43 117.458 1266.3 119.583 1266.05 121.25C1265.8 122.917 1265.39 124.25 1264.8 125.25C1264.22 126.25 1263.43 126.958 1262.43 127.375C1261.43 127.708 1260.14 127.875 1258.55 127.875H1181.3ZM1320.21 79.375C1324.3 72.0417 1329 66.25 1334.34 62C1339.67 57.75 1345.92 55.625 1353.09 55.625C1358.92 55.625 1363.67 57 1367.34 59.75L1365.09 85.25C1364.67 86.9167 1364 88.0833 1363.09 88.75C1362.25 89.3333 1361.09 89.625 1359.59 89.625C1358.25 89.625 1356.34 89.4583 1353.84 89.125C1351.34 88.7083 1349 88.5 1346.84 88.5C1343.67 88.5 1340.84 88.9583 1338.34 89.875C1335.92 90.7917 1333.75 92.0833 1331.84 93.75C1329.92 95.4167 1328.17 97.4583 1326.59 99.875C1325.09 102.292 1323.67 105.042 1322.34 108.125V187H1287.84V58.125H1308.21C1311.71 58.125 1314.13 58.75 1315.46 60C1316.8 61.25 1317.75 63.4167 1318.34 66.5L1320.21 79.375ZM1422.03 187V39.5H1444.53V187H1422.03ZM1452.03 187V39.5H1459.53V187H1452.03ZM1467.03 187V39.5H1474.53V187H1467.03ZM1497.03 187V39.5H1504.53V187H1497.03ZM1512.03 187V39.5H1534.53V187H1512.03ZM1491.28 249.75H1472.53L1466.78 266.75H1460.28L1481.53 207.75H1482.28L1503.78 266.75H1497.03L1491.28 249.75ZM1489.53 244.75L1482.03 222.75L1474.28 244.75H1489.53ZM1542.14 187V39.5H1549.64V187H1542.14ZM1557.14 187V39.5H1579.64V187H1557.14ZM1587.14 187V39.5H1594.64V187H1587.14ZM1617.14 187V39.5H1639.64V187H1617.14ZM1647.14 187V39.5H1654.64V187H1647.14ZM1586.39 261.25H1597.89V214.25H1587.14V208.75H1615.89V214.25H1604.39V261.25H1616.39V266.75H1586.39V261.25Z" fill="url(#paint0_linear_23_2)"/>
<defs>
<linearGradient id="paint0_linear_23_2" x1="-4" y1="-36" x2="1653.42" y2="309.916" gradientUnits="userSpaceOnUse">
<stop stop-color="#88E6F4"/>
<stop offset="1" stop-color="#F773EA"/>
</linearGradient>
</defs>
</svg>
